<svg width="144" height="75" viewBox="0 0 144 75" fill="none" xmlns="http://www.w3.org/2000/svg">
<ellipse cx="60.5" cy="37.5" rx="60.5" ry="37.5" fill="#19FCF0"/>
<path d="M115.087 35.5931L143.798 7.78011L138.026 38.769L143.395 70.5269L115.087 35.5931Z" fill="#19FCF0"/>
<ellipse cx="23" cy="25.5" rx="4" ry="4.5" fill="#FFFAEF"/>
<ellipse cx="24.5" cy="27" rx="2.5" ry="3" fill="#333333"/>
<path d="M46.916 40.1738L42.8105 73.4434C39.7706 72.8825 36.8308 72.179 34.0117 71.3428L38.0801 40.1738L34.5059 3.51367C37.4664 2.65588 40.5568 1.94059 43.7549 1.38574L46.916 40.1738Z" fill="white"/>
<path d="M60.8936 0C61.9393 0 62.979 0.0163408 64.0117 0.0488281L66.6904 38.8252L64.1084 74.9463C63.0439 74.9808 61.972 75 60.8936 75C58.7036 75 56.5409 74.9257 54.4111 74.7852L57.709 39.5146L54.2764 0.223633C56.4497 0.0771376 58.6574 2.13762e-06 60.8936 0Z" fill="#F8FDFF"/>
<path d="M74.7383 1.27148C77.6204 1.74156 80.4182 2.34014 83.1152 3.05664L85.6572 35.8213L83.8037 71.8311C80.8946 72.6307 77.8652 73.2925 74.7363 73.8027L76.957 37.1943L74.7383 1.27148Z" fill="#F8FDFF"/>
</svg>
